<svg version="1" xmlns="http://www.w3.org/2000/svg" width="933.333" height="933.333" viewBox="0 0 700.000000 700.000000"><path d="M105.8 94.8l-3.8.3V605h27.3c164.5.2 475.2-.1 475.5-.5.4-.3.4-9.5.3-34.5l-.1-8.5H375.9c-126 0-229.3-.4-229.6-.8-.3-.4-.5-105.4-.5-233.2l.1-232.5-2.7-.1c-16.5-.3-34.4-.3-37.4-.1z"/><path d="M516 97.6c-37.1 12.5-46.6 60.2-17.3 86.4 4 3.5 5.4 5.4 5 6.7-.3 1-5.3 15.7-11.2 32.8-5.9 17-14.1 41-18.2 53.2l-7.5 22.3h-3.2c-5 0-14.5 2.7-20.7 6l-5.7 2.9-33.8-25.4c-18.7-14-34.3-25.8-34.9-26.2-.5-.5-2.4-1.8-4.1-3l-3.1-2.2 1.7-6.7c2.6-10 1.7-20.5-2.6-30.7-3.4-7.9-5.5-11.1-11.8-17.1-9.5-9-20.1-13.5-33.1-14-29.1-1.1-52.8 21.5-52.7 50.4 0 16.3 7 30.8 19.5 40.7 2.5 1.9 2.6 2.1 1.2 6.4-.7 2.4-6.6 21-13 41.4-19.9 63.4-20.7 65.8-23.1 73.5-6.9 22.4-10.6 33.6-11.2 34.2-.5.5-3.6 1-7.1 1.3-25.4 2.1-45.7 23-46.6 48-.4 10.1 1 16.7 5.2 25.3 8.4 17.2 26.6 28.4 46 28.3 28.5-.1 51.1-23.7 50.4-52.6-.3-13-5.7-25.2-15.3-34.5l-5-4.9 3.7-11.8c2-6.5 4-12.9 4.5-14.3.5-1.4 3.1-9.7 5.9-18.5 2.7-8.8 7.5-23.9 10.5-33.6 3-9.6 7.1-22.4 9-28.5 1.9-6 5.8-18.3 8.6-27.4 6.3-20.3 6.8-21.7 8.3-21.7 8.4-.2 17.1-2.7 24.5-6.8 2.5-1.4 4.8-2.5 5.3-2.5.6 0 70.7 51.9 74.2 55 .4.3 0 3.5-.9 7.1-4.5 17.4.4 35.6 13.1 48.5 7.1 7.2 13.4 10.8 23.3 13.6 32.1 8.8 64.6-16.8 63.6-50.3-.4-15.7-6.8-28.7-19.4-39.3l-3.2-2.7 6.6-19.2c12.6-36.9 23.7-69.3 27.1-79.8l3.5-10.6 5.3-.7c22-2.8 39.6-18.1 44.3-38.6 6.2-26.3-7.7-51.6-33.2-60.5-9.5-3.3-22.3-3.3-32.4.1z"/></svg>